# xmcd
#
# Track frame offsets: 
#        150
#        16265
#        32611
#        48301
#        66069
#        90590
#        108474
#        127876
#        150212
#        166930
#        183690
#        200801
#        220506
#        235591
#        252500
#        276145
#        299026
#        311816
#        325819
#        340819
#
# Disc length: 4750 seconds
#
# Revision: 0
# Processed by: cddbd v1.5.2PL0 Copyright (c) Steve Scherf et al.
# Submitted via: ExactAudioCopy v1.0b3
#
DISCID=1b128c14
DTITLE=Various Artist - Masters Of Trance Vol. 1 - CD 2
DYEAR=1900
DGENRE=
TTITLE0=Cosmic Gate - I Feel Wonderful (7" Mix)
TTITLE1=Ayu - Appears (Kyau and Albert Radio Edit)
TTITLE2=Clokx - Feelings (Radio Edit)
TTITLE3=Three Drives - Greece 2000 (DJ Shog 2005 Radio Edit)
TTITLE4=Jones and Stephenson - The First Rebirth (Airwave Radio Mix)
TTITLE5=Marc Van Linden Feat. De-Vision - The Real Thing (Club Cut)
TTITLE6=DJ Merlin and DJ C-Bass - The Human Spirit
TTITLE7=Ridgewalkers - Ridge (Kyau Vs. Albert Edit)
TTITLE8=Sonic Child - Wild Pleasure
TTITLE9=DJ Moe Vs. Yoba - Endless Love 2005
TTITLE10=Wasabi - Ready 4 Take Off
TTITLE11=Avanto - The Flute (Radio Edit)
TTITLE12=Phobos and Deimos - The Key, The Secret (Real Booty Babes Radio
TTITLE12=Mix)
TTITLE13=Double G - Passport
TTITLE14=DJ Contact - U and Me
TTITLE15=Peaktwins - Hypnowaves
TTITLE16=Issue - Everytime (Sam G's Original Mix)
TTITLE17=Sam G. - Wanna Be With You
TTITLE18=Digital Tension - Tears Idle Tears
TTITLE19=Sean Callery - 24 Theme - The Longest Day (Armin Van Buuren R
TTITLE19=mx Radio Edit)
EXTD=
EXTT0=
EXTT1=
EXTT2=
EXTT3=
EXTT4=
EXTT5=
EXTT6=
EXTT7=
EXTT8=
EXTT9=
EXTT10=
EXTT11=
EXTT12=
EXTT13=
EXTT14=
EXTT15=
EXTT16=
EXTT17=
EXTT18=
EXTT19=
PLAYORDER=
